<?xml version="1.0" encoding="UTF-8" standalone="no"?>
<!DOCTYPE svg PUBLIC "-//W3C//DTD SVG 1.1//EN" "http://www.w3.org/Graphics/SVG/1.1/DTD/svg11.dtd">
<svg width="100%" height="100%" viewBox="0 0 702 106" version="1.1" xmlns="http://www.w3.org/2000/svg" xmlns:xlink="http://www.w3.org/1999/xlink" xml:space="preserve" style="fill-rule:evenodd;clip-rule:evenodd;stroke-linecap:round;stroke-linejoin:round;stroke-miterlimit:1.5;">
    <g transform="matrix(1,0,0,1,-171.915,-375.147)">
        <g id="Arrow" transform="matrix(1,0,0,1,-23.2911,171.742)">
            <g transform="matrix(0.804226,0,0,0.494019,38.4609,147.055)">
                <path d="M196.456,290.633L1043.04,290.633" style="fill:none;stroke:black;stroke-width:3.75px;"/>
            </g>
            <g transform="matrix(6.12323e-17,1,-1,6.12323e-17,1175.96,-338.412)">
                <path d="M629.045,280.024L640,301.934L618.09,301.934L629.045,280.024Z" style="stroke:black;stroke-width:2.5px;"/>
            </g>
        </g>
        <g transform="matrix(1,0,0,1,-454.942,147.363)">
            <g>
                <g>
                    <g transform="matrix(1,0,0,1,459.979,23.5376)">
                        <path d="M257.525,309.49C247.617,309.49 239.574,301.417 239.574,291.475C239.574,281.532 247.617,273.459 257.525,273.459C257.525,273.459 327.433,273.459 327.433,273.459C329.478,273.459 331.444,273.803 333.276,274.437C340.319,276.871 345.384,283.584 345.384,291.475C345.384,301.417 337.341,309.49 327.433,309.49C327.433,309.49 257.525,309.49 257.525,309.49Z"/>
                    </g>
                    <g transform="matrix(0.951804,0,0,0.872119,474.075,60.8115)">
                        <path d="M257.525,309.49C247.617,309.49 239.574,301.417 239.574,291.475C239.574,281.532 247.617,273.459 257.525,273.459C257.525,273.459 327.433,273.459 327.433,273.459C329.478,273.459 331.444,273.803 333.276,274.437C340.319,276.871 345.384,283.584 345.384,291.475C345.384,301.417 337.341,309.49 327.433,309.49C327.433,309.49 257.525,309.49 257.525,309.49Z" style="fill:rgb(224,87,151);"/>
                    </g>
                    <g transform="matrix(1,0,0,1,459.355,27.0605)">
                        <text x="276.123px" y="291.23px" style="font-family:'ArialMT', 'Arial', sans-serif;font-size:13px;fill:white;">cvogk</text>
                    </g>
                </g>
            </g>
        </g>
        <g transform="matrix(1,0,0,1,-4.16583,147.363)">
            <g transform="matrix(1,0,0,1,459.979,23.5376)">
                <path d="M257.525,309.49C247.617,309.49 239.574,301.417 239.574,291.475C239.574,281.532 247.617,273.459 257.525,273.459C257.525,273.459 327.433,273.459 327.433,273.459C329.478,273.459 331.444,273.803 333.276,274.437C340.319,276.871 345.384,283.584 345.384,291.475C345.384,301.417 337.341,309.49 327.433,309.49C327.433,309.49 257.525,309.49 257.525,309.49Z"/>
            </g>
            <g transform="matrix(0.951804,0,0,0.872119,474.075,60.8115)">
                <path d="M257.525,309.49C247.617,309.49 239.574,301.417 239.574,291.475C239.574,281.532 247.617,273.459 257.525,273.459C257.525,273.459 327.433,273.459 327.433,273.459C329.478,273.459 331.444,273.803 333.276,274.437C340.319,276.871 345.384,283.584 345.384,291.475C345.384,301.417 337.341,309.49 327.433,309.49C327.433,309.49 257.525,309.49 257.525,309.49Z" style="fill:rgb(45,218,120);"/>
            </g>
            <g transform="matrix(1,0,0,1,459.355,27.0605)">
                <text x="276.12px" y="291.23px" style="font-family:'ArialMT', 'Arial', sans-serif;font-size:13px;fill:white;">qwaql</text>
            </g>
        </g>
        <g transform="matrix(24.7011,0,0,1,-5716.9,106.371)">
            <path d="M245.606,355.03L245.606,332.819L259.651,332.819L259.651,355.03" style="fill:none;stroke:black;stroke-width:0.09px;stroke-dasharray:0.17,0.26,0,0;"/>
        </g>
        <g transform="matrix(24.7011,0,0,1,-5543.44,84.1607)">
            <path d="M245.606,355.03L245.606,332.819" style="fill:none;stroke:black;stroke-width:0.09px;stroke-dasharray:0.17,0.26,0,0;"/>
        </g>
        <g transform="matrix(1,0,0,1,214.727,92.4123)">
            <text x="248.047px" y="307.173px" style="font-family:'ArialMT', 'Arial', sans-serif;font-size:34px;">5000ms</text>
        </g>
    </g>
</svg>
