<?xml version="1.0" encoding="UTF-8" standalone="no"?>
<!DOCTYPE svg PUBLIC "-//W3C//DTD SVG 1.1//EN" "http://www.w3.org/Graphics/SVG/1.1/DTD/svg11.dtd">
<svg width="100%" height="100%" viewBox="0 0 702 107" version="1.1" xmlns="http://www.w3.org/2000/svg" xmlns:xlink="http://www.w3.org/1999/xlink" xml:space="preserve" style="fill-rule:evenodd;clip-rule:evenodd;stroke-linecap:round;stroke-linejoin:round;stroke-miterlimit:1.5;">
    <g transform="matrix(1,0,0,1,-195.206,-266.163)">
        <g id="Arrow" transform="matrix(1,0,0,1,0,64.3966)">
            <g transform="matrix(0.804226,0,0,0.494019,38.4609,147.055)">
                <path d="M196.456,290.633L1043.04,290.633" style="fill:none;stroke:black;stroke-width:3.75px;"/>
            </g>
            <g transform="matrix(6.12323e-17,1,-1,6.12323e-17,1175.96,-338.412)">
                <path d="M629.045,280.024L640,301.934L618.09,301.934L629.045,280.024Z" style="stroke:black;stroke-width:2.5px;"/>
            </g>
        </g>
        <g transform="matrix(1,0,0,1,3.2405,64.4227)">
            <g id="Message" transform="matrix(1,0,0,1,-11.614,-0.212119)">
                <g transform="matrix(0.493349,0,0,0.493349,118.207,203.513)">
                    <circle cx="240.588" cy="176.589" r="33.96" style="stroke:black;stroke-width:5.07px;"/>
                </g>
                <g transform="matrix(0.493349,0,0,0.493349,118.207,203.513)">
                    <circle cx="240.588" cy="176.589" r="32.509" style="fill:rgb(185,53,53);"/>
                </g>
                <g transform="matrix(2.98483,0,0,2.98483,-453.449,-263.781)">
                    <text x="229.086px" y="187.963px" style="font-family:'ArialMT', 'Arial', sans-serif;font-size:8.8px;fill:white;">c</text>
                </g>
            </g>
            <g id="Message1" transform="matrix(1,0,0,1,35.0211,-0.212119)">
                <g transform="matrix(0.493349,0,0,0.493349,118.207,203.513)">
                    <circle cx="240.588" cy="176.589" r="33.96" style="stroke:black;stroke-width:5.07px;"/>
                </g>
                <g transform="matrix(0.493349,0,0,0.493349,118.207,203.513)">
                    <circle cx="240.588" cy="176.589" r="32.509" style="fill:rgb(45,191,70);"/>
                </g>
                <g transform="matrix(2.98483,0,0,2.98483,-453.449,-263.781)">
                    <text x="229.086px" y="187.963px" style="font-family:'ArialMT', 'Arial', sans-serif;font-size:8.8px;fill:white;">v</text>
                </g>
            </g>
            <g id="Message2" transform="matrix(1,0,0,1,81.6561,-0.212119)">
                <g transform="matrix(0.493349,0,0,0.493349,118.207,203.513)">
                    <circle cx="240.588" cy="176.589" r="33.96" style="stroke:black;stroke-width:5.07px;"/>
                </g>
                <g transform="matrix(0.493349,0,0,0.493349,118.207,203.513)">
                    <circle cx="240.588" cy="176.589" r="32.509" style="fill:rgb(180,45,191);"/>
                </g>
                <g transform="matrix(2.98483,0,0,2.98483,-453.449,-263.781)">
                    <text x="229.086px" y="187.963px" style="font-family:'ArialMT', 'Arial', sans-serif;font-size:8.8px;fill:white;">o</text>
                </g>
            </g>
            <g id="Message3" transform="matrix(1,0,0,1,128.291,-0.212119)">
                <g transform="matrix(0.493349,0,0,0.493349,118.207,203.513)">
                    <circle cx="240.588" cy="176.589" r="33.96" style="stroke:black;stroke-width:5.07px;"/>
                </g>
                <g transform="matrix(0.493349,0,0,0.493349,118.207,203.513)">
                    <circle cx="240.588" cy="176.589" r="32.509" style="fill:rgb(224,218,87);"/>
                </g>
                <g transform="matrix(2.98483,0,0,2.98483,-453.449,-263.781)">
                    <text x="229.086px" y="187.963px" style="font-family:'ArialMT', 'Arial', sans-serif;font-size:8.8px;fill:white;">g</text>
                </g>
            </g>
            <g id="Message4" transform="matrix(1,0,0,1,174.926,-0.212119)">
                <g transform="matrix(0.493349,0,0,0.493349,118.207,203.513)">
                    <circle cx="240.588" cy="176.589" r="33.96" style="stroke:black;stroke-width:5.07px;"/>
                </g>
                <g transform="matrix(0.493349,0,0,0.493349,118.207,203.513)">
                    <circle cx="240.588" cy="176.589" r="32.509" style="fill:rgb(224,87,151);"/>
                </g>
                <g transform="matrix(2.98483,0,0,2.98483,-453.449,-263.781)">
                    <text x="229.086px" y="187.963px" style="font-family:'ArialMT', 'Arial', sans-serif;font-size:8.8px;fill:white;">k</text>
                </g>
            </g>
        </g>
        <g transform="matrix(1,0,0,1,431.467,62.1229)">
            <g id="Message5" transform="matrix(1,0,0,1,-11.614,-0.212119)">
                <g transform="matrix(0.493349,0,0,0.493349,118.207,203.513)">
                    <circle cx="240.588" cy="176.589" r="33.96" style="stroke:black;stroke-width:5.07px;"/>
                </g>
                <g transform="matrix(0.493349,0,0,0.493349,118.207,203.513)">
                    <circle cx="240.588" cy="176.589" r="32.509" style="fill:rgb(185,53,53);"/>
                </g>
                <g transform="matrix(2.98483,0,0,2.98483,-454.186,-263.781)">
                    <text x="229.086px" y="187.963px" style="font-family:'ArialMT', 'Arial', sans-serif;font-size:8.8px;fill:white;">q</text>
                </g>
            </g>
            <g id="Message6" transform="matrix(1,0,0,1,35.0211,-0.212119)">
                <g transform="matrix(0.493349,0,0,0.493349,118.207,203.513)">
                    <circle cx="240.588" cy="176.589" r="33.96" style="stroke:black;stroke-width:5.07px;"/>
                </g>
                <g transform="matrix(0.493349,0,0,0.493349,118.207,203.513)">
                    <circle cx="240.588" cy="176.589" r="32.509" style="fill:rgb(45,191,70);"/>
                </g>
                <g transform="matrix(2.98483,0,0,2.98483,-456.367,-263.781)">
                    <text x="229.086px" y="187.963px" style="font-family:'ArialMT', 'Arial', sans-serif;font-size:8.8px;fill:white;">w</text>
                </g>
            </g>
            <g id="Message7" transform="matrix(1,0,0,1,81.6561,-0.212119)">
                <g transform="matrix(0.493349,0,0,0.493349,118.207,203.513)">
                    <circle cx="240.588" cy="176.589" r="33.96" style="stroke:black;stroke-width:5.07px;"/>
                </g>
                <g transform="matrix(0.493349,0,0,0.493349,118.207,203.513)">
                    <circle cx="240.588" cy="176.589" r="32.509" style="fill:rgb(180,45,191);"/>
                </g>
                <g transform="matrix(2.98483,0,0,2.98483,-454.186,-263.781)">
                    <text x="229.086px" y="187.963px" style="font-family:'ArialMT', 'Arial', sans-serif;font-size:8.8px;fill:white;">a</text>
                </g>
            </g>
            <g id="Message8" transform="matrix(1,0,0,1,128.291,-0.212119)">
                <g transform="matrix(0.493349,0,0,0.493349,118.207,203.513)">
                    <circle cx="240.588" cy="176.589" r="33.96" style="stroke:black;stroke-width:5.07px;"/>
                </g>
                <g transform="matrix(0.493349,0,0,0.493349,118.207,203.513)">
                    <circle cx="240.588" cy="176.589" r="32.509" style="fill:rgb(224,218,87);"/>
                </g>
                <g transform="matrix(2.98483,0,0,2.98483,-454.186,-263.781)">
                    <text x="229.086px" y="187.963px" style="font-family:'ArialMT', 'Arial', sans-serif;font-size:8.8px;fill:white;">q</text>
                </g>
            </g>
            <g id="Message9" transform="matrix(1,0,0,1,174.926,-0.212119)">
                <g transform="matrix(0.493349,0,0,0.493349,118.207,203.513)">
                    <circle cx="240.588" cy="176.589" r="33.96" style="stroke:black;stroke-width:5.07px;"/>
                </g>
                <g transform="matrix(0.493349,0,0,0.493349,118.207,203.513)">
                    <circle cx="240.588" cy="176.589" r="32.509" style="fill:rgb(224,87,151);"/>
                </g>
                <g transform="matrix(2.98483,0,0,2.98483,-449.8,-263.781)">
                    <text x="229.086px" y="187.963px" style="font-family:'ArialMT', 'Arial', sans-serif;font-size:8.8px;fill:white;">l</text>
                </g>
            </g>
        </g>
        <g transform="matrix(0.877419,0,0,1,30.1066,0)">
            <path d="M245.606,355.03L245.606,332.819L259.651,332.819L259.651,355.03" style="fill:none;stroke:black;stroke-width:0.75px;stroke-dasharray:1.51,2.26,0,0;"/>
        </g>
        <g transform="matrix(0.877419,0,0,1,36.2681,-22.2105)">
            <path d="M245.606,355.03L245.606,332.819" style="fill:none;stroke:black;stroke-width:0.75px;stroke-dasharray:1.51,2.26,0,0;"/>
        </g>
        <g transform="matrix(14.796,0,0,1,-3201.8,0)">
            <path d="M245.606,355.03L245.606,332.819L259.651,332.819L259.651,355.03" style="fill:none;stroke:black;stroke-width:0.07px;stroke-dasharray:0.14,0.2,0,0;"/>
        </g>
        <g transform="matrix(14.796,0,0,1,-3097.9,-22.2105)">
            <path d="M245.606,355.03L245.606,332.819" style="fill:none;stroke:black;stroke-width:0.07px;stroke-dasharray:0.14,0.2,0,0;"/>
        </g>
        <g transform="matrix(1,0,0,1,-48.4995,-16.5725)">
            <text x="248.047px" y="307.173px" style="font-family:'ArialMT', 'Arial', sans-serif;font-size:34px;">100ms</text>
        </g>
        <g transform="matrix(1,0,0,1,235.83,-16.5725)">
            <text x="248.047px" y="307.173px" style="font-family:'ArialMT', 'Arial', sans-serif;font-size:34px;">5000ms</text>
        </g>
    </g>
</svg>
