<?xml version="1.0" encoding="UTF-8" standalone="no"?>
<!DOCTYPE svg PUBLIC "-//W3C//DTD SVG 1.1//EN" "http://www.w3.org/Graphics/SVG/1.1/DTD/svg11.dtd">
<svg width="100%" height="100%" viewBox="0 0 702 304" version="1.1" xmlns="http://www.w3.org/2000/svg" xmlns:xlink="http://www.w3.org/1999/xlink" xml:space="preserve" style="fill-rule:evenodd;clip-rule:evenodd;stroke-linecap:round;stroke-linejoin:round;stroke-miterlimit:1.5;">
    <g transform="matrix(1,0,0,1,-171.915,-176.479)">
        <g id="Arrow" transform="matrix(1,0,0,1,-23.2911,-96.1389)">
            <g transform="matrix(0.804226,0,0,0.494019,38.4609,147.055)">
                <path d="M196.456,290.633L1043.04,290.633" style="fill:none;stroke:black;stroke-width:3.75px;"/>
            </g>
            <g transform="matrix(6.12323e-17,1,-1,6.12323e-17,1175.96,-338.412)">
                <path d="M629.045,280.024L640,301.934L618.09,301.934L629.045,280.024Z" style="stroke:black;stroke-width:2.5px;"/>
            </g>
        </g>
        <g transform="matrix(1,0,0,1,26.943,0)">
            <g transform="matrix(1,0,0,1,-21.9061,-96.9805)">
                <path d="M257.525,309.49C247.617,309.49 239.574,301.417 239.574,291.475C239.574,281.532 247.617,273.459 257.525,273.459C257.525,273.459 327.433,273.459 327.433,273.459C329.478,273.459 331.444,273.803 333.276,274.437C340.319,276.871 345.384,283.584 345.384,291.475C345.384,301.417 337.341,309.49 327.433,309.49C327.433,309.49 257.525,309.49 257.525,309.49Z"/>
                <g transform="matrix(0.951804,0,0,0.872119,14.0963,37.2739)">
                    <path d="M257.525,309.49C247.617,309.49 239.574,301.417 239.574,291.475C239.574,281.532 247.617,273.459 257.525,273.459C257.525,273.459 327.433,273.459 327.433,273.459C329.478,273.459 331.444,273.803 333.276,274.437C340.319,276.871 345.384,283.584 345.384,291.475C345.384,301.417 337.341,309.49 327.433,309.49C327.433,309.49 257.525,309.49 257.525,309.49Z" style="fill:rgb(185,53,53);"/>
                </g>
                <g transform="matrix(1,0,0,1,-0.624342,3.5229)">
                    <text x="289.853px" y="291.23px" style="font-family:'ArialMT', 'Arial', sans-serif;font-size:13px;fill:white;">c</text>
                </g>
            </g>
            <g transform="matrix(1,0,0,1,90.788,-96.9805)">
                <path d="M257.525,309.49C247.617,309.49 239.574,301.417 239.574,291.475C239.574,281.532 247.617,273.459 257.525,273.459C257.525,273.459 327.433,273.459 327.433,273.459C329.478,273.459 331.444,273.803 333.276,274.437C340.319,276.871 345.384,283.584 345.384,291.475C345.384,301.417 337.341,309.49 327.433,309.49C327.433,309.49 257.525,309.49 257.525,309.49Z"/>
                <g transform="matrix(0.951804,0,0,0.872119,14.0963,37.2739)">
                    <path d="M257.525,309.49C247.617,309.49 239.574,301.417 239.574,291.475C239.574,281.532 247.617,273.459 257.525,273.459C257.525,273.459 327.433,273.459 327.433,273.459C329.478,273.459 331.444,273.803 333.276,274.437C340.319,276.871 345.384,283.584 345.384,291.475C345.384,301.417 337.341,309.49 327.433,309.49C327.433,309.49 257.525,309.49 257.525,309.49Z" style="fill:rgb(45,191,70);"/>
                </g>
                <g transform="matrix(1,0,0,1,-0.624342,3.5229)">
                    <text x="289.853px" y="291.23px" style="font-family:'ArialMT', 'Arial', sans-serif;font-size:13px;fill:white;">v</text>
                </g>
            </g>
            <g transform="matrix(1,0,0,1,203.482,-96.9805)">
                <path d="M257.525,309.49C247.617,309.49 239.574,301.417 239.574,291.475C239.574,281.532 247.617,273.459 257.525,273.459C257.525,273.459 327.433,273.459 327.433,273.459C329.478,273.459 331.444,273.803 333.276,274.437C340.319,276.871 345.384,283.584 345.384,291.475C345.384,301.417 337.341,309.49 327.433,309.49C327.433,309.49 257.525,309.49 257.525,309.49Z"/>
                <g transform="matrix(0.951804,0,0,0.872119,14.0963,37.2739)">
                    <path d="M257.525,309.49C247.617,309.49 239.574,301.417 239.574,291.475C239.574,281.532 247.617,273.459 257.525,273.459C257.525,273.459 327.433,273.459 327.433,273.459C329.478,273.459 331.444,273.803 333.276,274.437C340.319,276.871 345.384,283.584 345.384,291.475C345.384,301.417 337.341,309.49 327.433,309.49C327.433,309.49 257.525,309.49 257.525,309.49Z" style="fill:rgb(180,45,191);"/>
                </g>
                <g transform="matrix(1,0,0,1,-0.624342,3.5229)">
                    <text x="289.488px" y="291.23px" style="font-family:'ArialMT', 'Arial', sans-serif;font-size:13px;fill:white;">o</text>
                </g>
            </g>
            <g transform="matrix(1,0,0,1,-17.7085,-122.822)">
                <g transform="matrix(1,0,0,1,333.885,25.8414)">
                    <path d="M257.525,309.49C247.617,309.49 239.574,301.417 239.574,291.475C239.574,281.532 247.617,273.459 257.525,273.459C257.525,273.459 327.433,273.459 327.433,273.459C329.478,273.459 331.444,273.803 333.276,274.437C340.319,276.871 345.384,283.584 345.384,291.475C345.384,301.417 337.341,309.49 327.433,309.49C327.433,309.49 257.525,309.49 257.525,309.49Z"/>
                </g>
                <g transform="matrix(0.951804,0,0,0.872119,347.981,63.1153)">
                    <path d="M257.525,309.49C247.617,309.49 239.574,301.417 239.574,291.475C239.574,281.532 247.617,273.459 257.525,273.459C257.525,273.459 327.433,273.459 327.433,273.459C329.478,273.459 331.444,273.803 333.276,274.437C340.319,276.871 345.384,283.584 345.384,291.475C345.384,301.417 337.341,309.49 327.433,309.49C327.433,309.49 257.525,309.49 257.525,309.49Z" style="fill:rgb(224,218,87);"/>
                </g>
                <g transform="matrix(1,0,0,1,333.26,29.3643)">
                    <text x="289.488px" y="291.23px" style="font-family:'ArialMT', 'Arial', sans-serif;font-size:13px;fill:white;">g</text>
                </g>
            </g>
            <g transform="matrix(1,0,0,1,-31.1088,-120.518)">
                <g transform="matrix(1,0,0,1,459.979,23.5376)">
                    <path d="M257.525,309.49C247.617,309.49 239.574,301.417 239.574,291.475C239.574,281.532 247.617,273.459 257.525,273.459C257.525,273.459 327.433,273.459 327.433,273.459C329.478,273.459 331.444,273.803 333.276,274.437C340.319,276.871 345.384,283.584 345.384,291.475C345.384,301.417 337.341,309.49 327.433,309.49C327.433,309.49 257.525,309.49 257.525,309.49Z"/>
                </g>
                <g transform="matrix(0.951804,0,0,0.872119,474.075,60.8115)">
                    <path d="M257.525,309.49C247.617,309.49 239.574,301.417 239.574,291.475C239.574,281.532 247.617,273.459 257.525,273.459C257.525,273.459 327.433,273.459 327.433,273.459C329.478,273.459 331.444,273.803 333.276,274.437C340.319,276.871 345.384,283.584 345.384,291.475C345.384,301.417 337.341,309.49 327.433,309.49C327.433,309.49 257.525,309.49 257.525,309.49Z" style="fill:rgb(224,87,151);"/>
                </g>
                <g transform="matrix(1,0,0,1,459.355,27.0605)">
                    <text x="289.853px" y="291.23px" style="font-family:'ArialMT', 'Arial', sans-serif;font-size:13px;fill:white;">k</text>
                </g>
            </g>
        </g>
        <g id="Arrow1" transform="matrix(1,0,0,1,-23.2911,171.742)">
            <g transform="matrix(0.804226,0,0,0.494019,38.4609,147.055)">
                <path d="M196.456,290.633L1043.04,290.633" style="fill:none;stroke:black;stroke-width:3.75px;"/>
            </g>
            <g transform="matrix(6.12323e-17,1,-1,6.12323e-17,1175.96,-338.412)">
                <path d="M629.045,280.024L640,301.934L618.09,301.934L629.045,280.024Z" style="stroke:black;stroke-width:2.5px;"/>
            </g>
        </g>
        <g transform="matrix(1,0,0,1,26.943,267.881)">
            <g transform="matrix(1,0,0,1,-21.9061,-96.9805)">
                <path d="M257.525,309.49C247.617,309.49 239.574,301.417 239.574,291.475C239.574,281.532 247.617,273.459 257.525,273.459C257.525,273.459 327.433,273.459 327.433,273.459C329.478,273.459 331.444,273.803 333.276,274.437C340.319,276.871 345.384,283.584 345.384,291.475C345.384,301.417 337.341,309.49 327.433,309.49C327.433,309.49 257.525,309.49 257.525,309.49Z"/>
                <g transform="matrix(0.951804,0,0,0.872119,14.0963,37.2739)">
                    <path d="M257.525,309.49C247.617,309.49 239.574,301.417 239.574,291.475C239.574,281.532 247.617,273.459 257.525,273.459C257.525,273.459 327.433,273.459 327.433,273.459C329.478,273.459 331.444,273.803 333.276,274.437C340.319,276.871 345.384,283.584 345.384,291.475C345.384,301.417 337.341,309.49 327.433,309.49C327.433,309.49 257.525,309.49 257.525,309.49Z" style="fill:rgb(185,53,53);"/>
                </g>
                <g transform="matrix(1,0,0,1,-0.624342,3.5229)">
                    <text x="289.853px" y="291.23px" style="font-family:'ArialMT', 'Arial', sans-serif;font-size:13px;fill:white;">c</text>
                </g>
            </g>
            <g transform="matrix(1,0,0,1,90.788,-96.9805)">
                <path d="M257.525,309.49C247.617,309.49 239.574,301.417 239.574,291.475C239.574,281.532 247.617,273.459 257.525,273.459C257.525,273.459 327.433,273.459 327.433,273.459C329.478,273.459 331.444,273.803 333.276,274.437C340.319,276.871 345.384,283.584 345.384,291.475C345.384,301.417 337.341,309.49 327.433,309.49C327.433,309.49 257.525,309.49 257.525,309.49Z"/>
                <g transform="matrix(0.951804,0,0,0.872119,14.0963,37.2739)">
                    <path d="M257.525,309.49C247.617,309.49 239.574,301.417 239.574,291.475C239.574,281.532 247.617,273.459 257.525,273.459C257.525,273.459 327.433,273.459 327.433,273.459C329.478,273.459 331.444,273.803 333.276,274.437C340.319,276.871 345.384,283.584 345.384,291.475C345.384,301.417 337.341,309.49 327.433,309.49C327.433,309.49 257.525,309.49 257.525,309.49Z" style="fill:rgb(45,191,70);"/>
                </g>
                <g transform="matrix(1,0,0,1,-0.624342,3.5229)">
                    <text x="286.603px" y="291.23px" style="font-family:'ArialMT', 'Arial', sans-serif;font-size:13px;fill:white;">cv</text>
                </g>
            </g>
            <g transform="matrix(1,0,0,1,203.482,-96.9805)">
                <path d="M257.525,309.49C247.617,309.49 239.574,301.417 239.574,291.475C239.574,281.532 247.617,273.459 257.525,273.459C257.525,273.459 327.433,273.459 327.433,273.459C329.478,273.459 331.444,273.803 333.276,274.437C340.319,276.871 345.384,283.584 345.384,291.475C345.384,301.417 337.341,309.49 327.433,309.49C327.433,309.49 257.525,309.49 257.525,309.49Z"/>
                <g transform="matrix(0.951804,0,0,0.872119,14.0963,37.2739)">
                    <path d="M257.525,309.49C247.617,309.49 239.574,301.417 239.574,291.475C239.574,281.532 247.617,273.459 257.525,273.459C257.525,273.459 327.433,273.459 327.433,273.459C329.478,273.459 331.444,273.803 333.276,274.437C340.319,276.871 345.384,283.584 345.384,291.475C345.384,301.417 337.341,309.49 327.433,309.49C327.433,309.49 257.525,309.49 257.525,309.49Z" style="fill:rgb(180,45,191);"/>
                </g>
                <g transform="matrix(1,0,0,1,-0.624342,3.5229)">
                    <text x="282.988px" y="291.23px" style="font-family:'ArialMT', 'Arial', sans-serif;font-size:13px;fill:white;">cvo</text>
                </g>
            </g>
            <g transform="matrix(1,0,0,1,-17.7085,-122.822)">
                <g transform="matrix(1,0,0,1,333.885,25.8414)">
                    <path d="M257.525,309.49C247.617,309.49 239.574,301.417 239.574,291.475C239.574,281.532 247.617,273.459 257.525,273.459C257.525,273.459 327.433,273.459 327.433,273.459C329.478,273.459 331.444,273.803 333.276,274.437C340.319,276.871 345.384,283.584 345.384,291.475C345.384,301.417 337.341,309.49 327.433,309.49C327.433,309.49 257.525,309.49 257.525,309.49Z"/>
                </g>
                <g transform="matrix(0.951804,0,0,0.872119,347.981,63.1153)">
                    <path d="M257.525,309.49C247.617,309.49 239.574,301.417 239.574,291.475C239.574,281.532 247.617,273.459 257.525,273.459C257.525,273.459 327.433,273.459 327.433,273.459C329.478,273.459 331.444,273.803 333.276,274.437C340.319,276.871 345.384,283.584 345.384,291.475C345.384,301.417 337.341,309.49 327.433,309.49C327.433,309.49 257.525,309.49 257.525,309.49Z" style="fill:rgb(224,218,87);"/>
                </g>
                <g transform="matrix(1,0,0,1,333.26,29.3643)">
                    <text x="279.373px" y="291.23px" style="font-family:'ArialMT', 'Arial', sans-serif;font-size:13px;fill:white;">cvog</text>
                </g>
            </g>
            <g transform="matrix(1,0,0,1,-31.1088,-120.518)">
                <g transform="matrix(1,0,0,1,459.979,23.5376)">
                    <path d="M257.525,309.49C247.617,309.49 239.574,301.417 239.574,291.475C239.574,281.532 247.617,273.459 257.525,273.459C257.525,273.459 327.433,273.459 327.433,273.459C329.478,273.459 331.444,273.803 333.276,274.437C340.319,276.871 345.384,283.584 345.384,291.475C345.384,301.417 337.341,309.49 327.433,309.49C327.433,309.49 257.525,309.49 257.525,309.49Z"/>
                </g>
                <g transform="matrix(0.951804,0,0,0.872119,474.075,60.8115)">
                    <path d="M257.525,309.49C247.617,309.49 239.574,301.417 239.574,291.475C239.574,281.532 247.617,273.459 257.525,273.459C257.525,273.459 327.433,273.459 327.433,273.459C329.478,273.459 331.444,273.803 333.276,274.437C340.319,276.871 345.384,283.584 345.384,291.475C345.384,301.417 337.341,309.49 327.433,309.49C327.433,309.49 257.525,309.49 257.525,309.49Z" style="fill:rgb(224,87,151);"/>
                </g>
                <g transform="matrix(1,0,0,1,459.355,27.0605)">
                    <text x="276.123px" y="291.23px" style="font-family:'ArialMT', 'Arial', sans-serif;font-size:13px;fill:white;">cvogk</text>
                </g>
            </g>
        </g>
        <g transform="matrix(1,0,0,1,0,6.7617)">
            <rect x="173.165" y="252.542" width="699.479" height="138.261" style="fill:none;stroke:black;stroke-width:2px;"/>
            <g transform="matrix(1,0,0,1,156.204,24.5298)">
                <text x="274.043px" y="313.377px" style="font-family:'ArialMT', 'Arial', sans-serif;font-size:62.731px;">Scan()</text>
            </g>
        </g>
        <g>
            <g transform="matrix(1,0,0,0.626841,0,79.2997)">
                <path d="M297.516,212.509L297.516,258.54" style="fill:none;stroke:black;stroke-width:2.4px;stroke-dasharray:4.79,7.19,0,0;"/>
            </g>
            <g transform="matrix(-1,-1.22465e-16,1.22465e-16,-1,595.852,499.903)">
                <path d="M298.336,240.599L307.307,258.54L289.366,258.54L298.336,240.599Z" style="fill:none;stroke:black;stroke-width:2px;stroke-dasharray:4,6,0,0;"/>
            </g>
        </g>
        <g transform="matrix(1,0,0,1,5.68434e-14,185.056)">
            <g transform="matrix(1,0,0,0.626841,0,79.2997)">
                <path d="M297.516,212.509L297.516,258.54" style="fill:none;stroke:black;stroke-width:2.4px;stroke-dasharray:4.79,7.19,0,0;"/>
            </g>
            <g transform="matrix(-1,-1.22465e-16,1.22465e-16,-1,595.852,499.903)">
                <path d="M298.336,240.599L307.307,258.54L289.366,258.54L298.336,240.599Z" style="fill:none;stroke:black;stroke-width:2px;stroke-dasharray:4,6,0,0;"/>
            </g>
        </g>
        <g transform="matrix(1,0,0,1,112.91,0)">
            <g transform="matrix(1,0,0,0.626841,0,79.2997)">
                <path d="M297.516,212.509L297.516,258.54" style="fill:none;stroke:black;stroke-width:2.4px;stroke-dasharray:4.79,7.19,0,0;"/>
            </g>
            <g transform="matrix(-1,-1.22465e-16,1.22465e-16,-1,595.852,499.903)">
                <path d="M298.336,240.599L307.307,258.54L289.366,258.54L298.336,240.599Z" style="fill:none;stroke:black;stroke-width:2px;stroke-dasharray:4,6,0,0;"/>
            </g>
        </g>
        <g transform="matrix(1,0,0,1,112.91,185.056)">
            <g transform="matrix(1,0,0,0.626841,0,79.2997)">
                <path d="M297.516,212.509L297.516,258.54" style="fill:none;stroke:black;stroke-width:2.4px;stroke-dasharray:4.79,7.19,0,0;"/>
            </g>
            <g transform="matrix(-1,-1.22465e-16,1.22465e-16,-1,595.852,499.903)">
                <path d="M298.336,240.599L307.307,258.54L289.366,258.54L298.336,240.599Z" style="fill:none;stroke:black;stroke-width:2px;stroke-dasharray:4,6,0,0;"/>
            </g>
        </g>
        <g transform="matrix(1,0,0,1,225.247,0)">
            <g transform="matrix(1,0,0,0.626841,0,79.2997)">
                <path d="M297.516,212.509L297.516,258.54" style="fill:none;stroke:black;stroke-width:2.4px;stroke-dasharray:4.79,7.19,0,0;"/>
            </g>
            <g transform="matrix(-1,-1.22465e-16,1.22465e-16,-1,595.852,499.903)">
                <path d="M298.336,240.599L307.307,258.54L289.366,258.54L298.336,240.599Z" style="fill:none;stroke:black;stroke-width:2px;stroke-dasharray:4,6,0,0;"/>
            </g>
        </g>
        <g transform="matrix(1,0,0,1,225.247,185.056)">
            <g transform="matrix(1,0,0,0.626841,0,79.2997)">
                <path d="M297.516,212.509L297.516,258.54" style="fill:none;stroke:black;stroke-width:2.4px;stroke-dasharray:4.79,7.19,0,0;"/>
            </g>
            <g transform="matrix(-1,-1.22465e-16,1.22465e-16,-1,595.852,499.903)">
                <path d="M298.336,240.599L307.307,258.54L289.366,258.54L298.336,240.599Z" style="fill:none;stroke:black;stroke-width:2px;stroke-dasharray:4,6,0,0;"/>
            </g>
        </g>
        <g transform="matrix(1,0,0,1,337.319,0)">
            <g transform="matrix(1,0,0,0.626841,0,79.2997)">
                <path d="M297.516,212.509L297.516,258.54" style="fill:none;stroke:black;stroke-width:2.4px;stroke-dasharray:4.79,7.19,0,0;"/>
            </g>
            <g transform="matrix(-1,-1.22465e-16,1.22465e-16,-1,595.852,499.903)">
                <path d="M298.336,240.599L307.307,258.54L289.366,258.54L298.336,240.599Z" style="fill:none;stroke:black;stroke-width:2px;stroke-dasharray:4,6,0,0;"/>
            </g>
        </g>
        <g transform="matrix(1,0,0,1,337.319,185.056)">
            <g transform="matrix(1,0,0,0.626841,0,79.2997)">
                <path d="M297.516,212.509L297.516,258.54" style="fill:none;stroke:black;stroke-width:2.4px;stroke-dasharray:4.79,7.19,0,0;"/>
            </g>
            <g transform="matrix(-1,-1.22465e-16,1.22465e-16,-1,595.852,499.903)">
                <path d="M298.336,240.599L307.307,258.54L289.366,258.54L298.336,240.599Z" style="fill:none;stroke:black;stroke-width:2px;stroke-dasharray:4,6,0,0;"/>
            </g>
        </g>
        <g transform="matrix(1,0,0,1,451.373,0)">
            <g transform="matrix(1,0,0,0.626841,0,79.2997)">
                <path d="M297.516,212.509L297.516,258.54" style="fill:none;stroke:black;stroke-width:2.4px;stroke-dasharray:4.79,7.19,0,0;"/>
            </g>
            <g transform="matrix(-1,-1.22465e-16,1.22465e-16,-1,595.852,499.903)">
                <path d="M298.336,240.599L307.307,258.54L289.366,258.54L298.336,240.599Z" style="fill:none;stroke:black;stroke-width:2px;stroke-dasharray:4,6,0,0;"/>
            </g>
        </g>
        <g transform="matrix(1,0,0,1,451.373,185.056)">
            <g transform="matrix(1,0,0,0.626841,0,79.2997)">
                <path d="M297.516,212.509L297.516,258.54" style="fill:none;stroke:black;stroke-width:2.4px;stroke-dasharray:4.79,7.19,0,0;"/>
            </g>
            <g transform="matrix(-1,-1.22465e-16,1.22465e-16,-1,595.852,499.903)">
                <path d="M298.336,240.599L307.307,258.54L289.366,258.54L298.336,240.599Z" style="fill:none;stroke:black;stroke-width:2px;stroke-dasharray:4,6,0,0;"/>
            </g>
        </g>
    </g>
</svg>
